<svg width="128" height="128" viewBox="0 0 128 128" fill="none" xmlns="http://www.w3.org/2000/svg">
<path fill-rule="evenodd" clip-rule="evenodd" d="M65.91 8.55671C65.3028 8.85 64.5767 9.74943 64.2954 10.5555C63.977 11.4695 63.7747 21.5034 63.7581 37.2272C63.733 61.0042 63.6792 62.4857 62.8084 63.3565C62.1526 64.0124 60.3743 64.4819 56.6655 64.9781C48.778 66.0332 47.4457 65.9579 46.2088 64.385C45.2134 63.12 45.1677 62.4616 45.1677 49.3557V35.6493L43.7987 34.5726C42.5226 33.5687 41.9582 33.5069 35.4668 33.6571C25.7809 33.882 26.5864 32.2479 26.5864 51.6659V67.1421L25.3786 68.0923C24.4897 68.7913 22.3353 69.2659 17.2179 69.8901C7.47528 71.0783 8.0051 70.2758 8.0051 83.8382C8.0051 94.3602 8.0071 94.3813 9.23799 95.6117C10.4242 96.7979 10.7245 96.8446 17.2054 96.8446C23.2584 96.8446 24.0739 96.7391 25.2631 95.8035L26.5864 94.763V82.8021C26.5864 67.7432 25.9471 68.8712 35.1785 67.6368C41.4213 66.8016 42.9832 66.8453 44.775 67.9034C44.8353 67.9391 45.0045 79.1878 45.1516 92.9003C45.4048 116.506 45.4695 117.889 46.3755 118.889C47.2619 119.868 47.8535 119.946 54.4242 119.946C60.0308 119.946 61.7508 119.782 62.6327 119.164L63.749 118.382V92.831C63.749 77.869 63.9474 66.7589 64.2271 66.0227C64.9171 64.2078 65.8999 63.8482 72.5546 62.9754C80.202 61.9725 80.1438 61.9694 81.5997 63.4258L82.8325 64.6582V79.7106V94.763L84.2015 95.8397C85.4776 96.8436 86.0421 96.9053 92.5335 96.7552C99.1494 96.6015 99.5437 96.5347 100.455 95.4078C101.355 94.2949 101.414 93.2132 101.414 77.7611C101.414 62.8257 101.495 61.2006 102.293 60.2308C103.038 59.3244 104.313 59.0165 110.695 58.2035C117.164 57.3789 118.343 57.0906 119.107 56.1475C119.886 55.1858 119.995 53.8911 119.995 45.6204C119.995 33.192 120.502 33.875 111.115 33.6571C104.623 33.5069 104.059 33.5687 102.783 34.5726L101.414 35.6493V46.3822C101.414 60.155 101.944 59.3339 92.2834 60.5121C85.8502 61.2965 85.331 61.296 84.1227 60.504L82.8325 59.6588V35.5885C82.8325 19.0175 82.6588 11.137 82.2751 10.2943C81.9683 9.62137 81.1667 8.81986 80.4938 8.51302C78.939 7.80492 67.3945 7.83958 65.91 8.55671Z" fill="#1A1A1A"/>
</svg>
